<svg width="65" height="65" viewBox="0 0 65 65" fill="none" xmlns="http://www.w3.org/2000/svg">
<g clip-path="url(#clip0_585_1130)">
<path d="M45.8333 0.660156C45.1261 0.660156 44.4478 0.941108 43.9477 1.4412C43.4476 1.9413 43.1667 2.61958 43.1667 3.32682C43.1667 11.1908 36.2787 13.9935 29.8333 13.9935H11.1667C8.33769 13.9935 5.62458 15.1173 3.62419 17.1177C1.62381 19.1181 0.5 21.8312 0.5 24.6602L0.5 29.9935C0.505824 31.5901 0.871898 33.1649 1.57094 34.6003C2.26998 36.0358 3.28397 37.295 4.53733 38.2842L14.0627 59.5428C14.7401 61.0657 15.8445 62.3596 17.2421 63.2678C18.6397 64.1761 20.2706 64.6597 21.9373 64.6602C23.2635 64.6593 24.5684 64.3268 25.7332 63.6929C26.8981 63.059 27.8859 62.1438 28.6068 61.0307C29.3277 59.9176 29.7587 58.6419 29.8607 57.3196C29.9627 55.9974 29.7323 54.6707 29.1907 53.4602L23.324 40.6602H29.8333C36.2787 40.6602 43.1667 43.4628 43.1667 51.3268C43.1667 52.0341 43.4476 52.7123 43.9477 53.2124C44.4478 53.7125 45.1261 53.9935 45.8333 53.9935C46.5406 53.9935 47.2189 53.7125 47.719 53.2124C48.2191 52.7123 48.5 52.0341 48.5 51.3268V3.32682C48.5 2.61958 48.2191 1.9413 47.719 1.4412C47.2189 0.941108 46.5406 0.660156 45.8333 0.660156ZM24.332 55.6442C24.5086 56.0431 24.5829 56.4797 24.5481 56.9146C24.5133 57.3494 24.3705 57.7687 24.1327 58.1345C23.8949 58.5002 23.5696 58.8008 23.1862 59.009C22.8029 59.2172 22.3736 59.3265 21.9373 59.3268C21.3011 59.3264 20.6786 59.1412 20.1456 58.7937C19.6125 58.4462 19.1919 57.9515 18.9347 57.3695L11.4467 40.6602H17.4573L24.332 55.6442ZM43.1667 39.5935C39.3568 36.658 34.6396 35.1485 29.8333 35.3268H11.1667C9.75218 35.3268 8.39563 34.7649 7.39543 33.7647C6.39524 32.7645 5.83333 31.408 5.83333 29.9935V24.6602C5.83333 23.2457 6.39524 21.8891 7.39543 20.8889C8.39563 19.8887 9.75218 19.3268 11.1667 19.3268H29.8333C34.638 19.5089 39.355 18.0042 43.1667 15.0735V39.5935ZM64.2333 41.8655C64.0769 42.179 63.8602 42.4586 63.5957 42.6884C63.3312 42.9181 63.0239 43.0935 62.6916 43.2044C62.3592 43.3154 62.0083 43.3597 61.6588 43.335C61.3093 43.3102 60.9681 43.2168 60.6547 43.0602L55.3213 40.3935C54.6884 40.0774 54.2069 39.5227 53.9828 38.8516C53.7588 38.1805 53.8105 37.4478 54.1267 36.8148C54.4428 36.1818 54.9975 35.7004 55.6686 35.4763C56.3397 35.2523 57.0724 35.304 57.7053 35.6202L63.0387 38.2868C63.6684 38.6028 64.1475 39.1551 64.3713 39.8231C64.5952 40.4911 64.5456 41.2206 64.2333 41.8522V41.8655ZM54.1267 17.8655C53.97 17.5521 53.8766 17.2109 53.8518 16.8614C53.8271 16.5119 53.8715 16.1609 53.9824 15.8286C54.0933 15.4962 54.2687 15.189 54.4985 14.9245C54.7282 14.6599 55.0078 14.4432 55.3213 14.2868L60.6547 11.6202C61.2877 11.304 62.0203 11.2523 62.6914 11.4763C63.3626 11.7004 63.9172 12.1818 64.2333 12.8148C64.5495 13.4478 64.6012 14.1805 64.3772 14.8516C64.1531 15.5227 63.6717 16.0774 63.0387 16.3935L57.7053 19.0602C57.3919 19.2168 57.0507 19.3102 56.7012 19.335C56.3517 19.3597 56.0008 19.3154 55.6684 19.2044C55.3361 19.0935 55.0289 18.9181 54.7643 18.6884C54.4998 18.4586 54.2831 18.179 54.1267 17.8655ZM53.8333 27.3268C53.8333 26.6196 54.1143 25.9413 54.6144 25.4412C55.1145 24.9411 55.7928 24.6602 56.5 24.6602H61.8333C62.5406 24.6602 63.2189 24.9411 63.719 25.4412C64.2191 25.9413 64.5 26.6196 64.5 27.3268C64.5 28.0341 64.2191 28.7123 63.719 29.2124C63.2189 29.7125 62.5406 29.9935 61.8333 29.9935H56.5C55.7928 29.9935 55.1145 29.7125 54.6144 29.2124C54.1143 28.7123 53.8333 28.0341 53.8333 27.3268Z" fill="#9559E5"/>
</g>
<defs>
<clipPath id="clip0_585_1130">
<rect width="64" height="64" fill="white" transform="translate(0.5 0.660156)"/>
</clipPath>
</defs>
</svg>
