<svg width="30" height="30" viewBox="0 0 30 30" fill="none" xmlns="http://www.w3.org/2000/svg">
<circle cx="15" cy="15" r="15" fill="white"/>
<path d="M11.85 7.5H18.15C20.55 7.5 22.5 9.45 22.5 11.85V18.15C22.5 19.3037 22.0417 20.4101 21.2259 21.2259C20.4101 22.0417 19.3037 22.5 18.15 22.5H11.85C9.45 22.5 7.5 20.55 7.5 18.15V11.85C7.5 10.6963 7.9583 9.58987 8.77409 8.77409C9.58987 7.9583 10.6963 7.5 11.85 7.5ZM11.7 9C10.9839 9 10.2972 9.28446 9.79081 9.79081C9.28446 10.2972 9 10.9839 9 11.7V18.3C9 19.7925 10.2075 21 11.7 21H18.3C19.0161 21 19.7028 20.7155 20.2092 20.2092C20.7155 19.7028 21 19.0161 21 18.3V11.7C21 10.2075 19.7925 9 18.3 9H11.7ZM18.9375 10.125C19.1861 10.125 19.4246 10.2238 19.6004 10.3996C19.7762 10.5754 19.875 10.8139 19.875 11.0625C19.875 11.3111 19.7762 11.5496 19.6004 11.7254C19.4246 11.9012 19.1861 12 18.9375 12C18.6889 12 18.4504 11.9012 18.2746 11.7254C18.0988 11.5496 18 11.3111 18 11.0625C18 10.8139 18.0988 10.5754 18.2746 10.3996C18.4504 10.2238 18.6889 10.125 18.9375 10.125ZM15 11.25C15.9946 11.25 16.9484 11.6451 17.6517 12.3483C18.3549 13.0516 18.75 14.0054 18.75 15C18.75 15.9946 18.3549 16.9484 17.6517 17.6517C16.9484 18.3549 15.9946 18.75 15 18.75C14.0054 18.75 13.0516 18.3549 12.3483 17.6517C11.6451 16.9484 11.25 15.9946 11.25 15C11.25 14.0054 11.6451 13.0516 12.3483 12.3483C13.0516 11.6451 14.0054 11.25 15 11.25ZM15 12.75C14.4033 12.75 13.831 12.9871 13.409 13.409C12.9871 13.831 12.75 14.4033 12.75 15C12.75 15.5967 12.9871 16.169 13.409 16.591C13.831 17.0129 14.4033 17.25 15 17.25C15.5967 17.25 16.169 17.0129 16.591 16.591C17.0129 16.169 17.25 15.5967 17.25 15C17.25 14.4033 17.0129 13.831 16.591 13.409C16.169 12.9871 15.5967 12.75 15 12.75Z" fill="#8843E1"/>
</svg>
