<svg width="65" height="65" viewBox="0 0 65 65" fill="none" xmlns="http://www.w3.org/2000/svg">
<g id="document 1" clip-path="url(#clip0_585_1137)">
<path id="Vector" d="M45.834 37.6732C45.834 38.3805 45.553 39.0588 45.0529 39.5589C44.5528 40.059 43.8746 40.3399 43.1673 40.3399H21.834C21.1267 40.3399 20.4485 40.059 19.9484 39.5589C19.4483 39.0588 19.1673 38.3805 19.1673 37.6732C19.1673 36.966 19.4483 36.2877 19.9484 35.7876C20.4485 35.2875 21.1267 35.0066 21.834 35.0066H43.1673C43.8746 35.0066 44.5528 35.2875 45.0529 35.7876C45.553 36.2877 45.834 36.966 45.834 37.6732ZM35.1673 45.6732H21.834C21.1267 45.6732 20.4485 45.9542 19.9484 46.4543C19.4483 46.9544 19.1673 47.6327 19.1673 48.3399C19.1673 49.0471 19.4483 49.7254 19.9484 50.2255C20.4485 50.7256 21.1267 51.0066 21.834 51.0066H35.1673C35.8746 51.0066 36.5528 50.7256 37.0529 50.2255C37.553 49.7254 37.834 49.0471 37.834 48.3399C37.834 47.6327 37.553 46.9544 37.0529 46.4543C36.5528 45.9542 35.8746 45.6732 35.1673 45.6732ZM59.1673 28.2999V51.0066C59.1631 54.5415 57.757 57.9304 55.2574 60.43C52.7578 62.9296 49.3689 64.3357 45.834 64.3399H19.1673C15.6324 64.3357 12.2435 62.9296 9.7439 60.43C7.24434 57.9304 5.83822 54.5415 5.83398 51.0066V13.6732C5.83822 10.1383 7.24434 6.74939 9.7439 4.24983C12.2435 1.75026 15.6324 0.34414 19.1673 0.339905H31.2073C33.6596 0.333593 36.0889 0.813473 38.3546 1.7518C40.6203 2.69012 42.6775 4.06827 44.4073 5.80657L53.698 15.1026C55.4373 16.8312 56.8163 18.8878 57.7551 21.1532C58.694 23.4186 59.174 25.8477 59.1673 28.2999ZM40.6367 9.57724C39.7974 8.76433 38.8551 8.06504 37.834 7.49724V19.0066C37.834 19.7138 38.1149 20.3921 38.615 20.8922C39.1151 21.3923 39.7934 21.6732 40.5007 21.6732H52.01C51.4419 20.6524 50.7416 19.711 49.9273 18.8732L40.6367 9.57724ZM53.834 28.2999C53.834 27.8599 53.7486 27.4386 53.7086 27.0066H40.5007C38.3789 27.0066 36.3441 26.1637 34.8438 24.6634C33.3435 23.1631 32.5007 21.1283 32.5007 19.0066V5.79857C32.0687 5.75857 31.6447 5.67324 31.2073 5.67324H19.1673C17.0456 5.67324 15.0108 6.51609 13.5105 8.01639C12.0102 9.51668 11.1673 11.5515 11.1673 13.6732V51.0066C11.1673 53.1283 12.0102 55.1631 13.5105 56.6634C15.0108 58.1637 17.0456 59.0066 19.1673 59.0066H45.834C47.9557 59.0066 49.9906 58.1637 51.4908 56.6634C52.9911 55.1631 53.834 53.1283 53.834 51.0066V28.2999Z" fill="#9559E5"/>
</g>
<defs>
<clipPath id="clip0_585_1137">
<rect width="64" height="64" fill="white" transform="translate(0.5 0.339844)"/>
</clipPath>
</defs>
</svg>
