<svg width="14" height="14" viewBox="0 0 14 14" fill="none" xmlns="http://www.w3.org/2000/svg">
<path fill-rule="evenodd" clip-rule="evenodd" d="M5.11775 5.09067H7.46245V6.25617C7.8002 5.58585 8.66636 4.98357 9.9675 4.98357C12.4618 4.98357 13.054 6.31791 13.054 8.76609V13.3002H10.5287V9.32364C10.5287 7.92945 10.191 7.14321 9.33113 7.14321C8.13859 7.14321 7.643 7.99056 7.643 9.32301V13.3002H5.11775V5.09067ZM0.787582 13.1931H3.31283V4.98357H0.787582V13.1931ZM3.67457 2.3067C3.67467 2.51792 3.63269 2.72705 3.55108 2.92195C3.46947 3.11684 3.34986 3.2936 3.1992 3.44196C2.89389 3.74475 2.48064 3.91424 2.05021 3.9132C1.62053 3.91291 1.20823 3.74385 0.902481 3.44259C0.752362 3.29372 0.633155 3.11676 0.551689 2.92185C0.470223 2.72693 0.4281 2.51789 0.427734 2.3067C0.427734 1.88019 0.598189 1.47195 0.903113 1.17081C1.2086 0.869135 1.62107 0.700007 2.05084 0.700195C2.48139 0.700195 2.89427 0.869665 3.1992 1.17081C3.50349 1.47195 3.67457 1.88019 3.67457 2.3067Z" fill="#E5F6FF"/>
</svg>
