<svg width="13" height="14" viewBox="0 0 13 14" fill="none" xmlns="http://www.w3.org/2000/svg">
<path d="M6.35635 3.76769C4.56382 3.76769 3.11717 5.21136 3.11717 7.0002C3.11717 8.78903 4.56382 10.2327 6.35635 10.2327C8.14888 10.2327 9.59553 8.78903 9.59553 7.0002C9.59553 5.21136 8.14888 3.76769 6.35635 3.76769ZM6.35635 9.10109C5.19713 9.10109 4.25112 8.15703 4.25112 7.0002C4.25112 5.84336 5.19713 4.8993 6.35635 4.8993C7.51557 4.8993 8.46158 5.84336 8.46158 7.0002C8.46158 8.15703 7.51557 9.10109 6.35635 9.10109ZM9.7282 2.88194C9.30968 2.88194 8.9717 3.21922 8.9717 3.63687C8.9717 4.05453 9.30968 4.39181 9.7282 4.39181C10.1467 4.39181 10.4847 4.05611 10.4847 3.63687C10.4848 3.5377 10.4653 3.43947 10.4274 3.34782C10.3894 3.25618 10.3337 3.1729 10.2634 3.10278C10.1931 3.03265 10.1097 2.97705 10.0178 2.93915C9.926 2.90126 9.82758 2.88181 9.7282 2.88194ZM12.6705 7.0002C12.6705 6.13021 12.6784 5.2681 12.6294 4.39969C12.5804 3.39101 12.3499 2.4958 11.6107 1.7582C10.87 1.01903 9.97457 0.7905 8.96381 0.741642C8.09202 0.692784 7.22813 0.700664 6.35793 0.700664C5.48614 0.700664 4.62226 0.692784 3.75205 0.741642C2.74129 0.7905 1.84424 1.02061 1.10511 1.7582C0.364414 2.49738 0.135413 3.39101 0.0864539 4.39969C0.037495 5.26968 0.0453916 6.13178 0.0453916 7.0002C0.0453916 7.86861 0.037495 8.73229 0.0864539 9.6007C0.135413 10.6094 0.365993 11.5046 1.10511 12.2422C1.84582 12.9814 2.74129 13.2099 3.75205 13.2587C4.62384 13.3076 5.48772 13.2997 6.35793 13.2997C7.22971 13.2997 8.0936 13.3076 8.96381 13.2587C9.97457 13.2099 10.8716 12.9798 11.6107 12.2422C12.3514 11.503 12.5804 10.6094 12.6294 9.6007C12.6799 8.73229 12.6705 7.87018 12.6705 7.0002ZM11.2807 10.7166C11.1654 11.0034 11.0264 11.2177 10.8037 11.4384C10.581 11.6606 10.3678 11.7993 10.0804 11.9144C9.24966 12.2438 7.27709 12.1697 6.35635 12.1697C5.43561 12.1697 3.46146 12.2438 2.63074 11.9159C2.3433 11.8009 2.12851 11.6622 1.90741 11.44C1.68472 11.2177 1.54574 11.005 1.43045 10.7181C1.10196 9.88755 1.17618 7.91904 1.17618 7.0002C1.17618 6.08135 1.10196 4.11127 1.43045 3.28226C1.54574 2.99541 1.68472 2.78107 1.90741 2.56042C2.13009 2.33977 2.3433 2.1995 2.63074 2.08445C3.46146 1.75663 5.43561 1.8307 6.35635 1.8307C7.27709 1.8307 9.25124 1.75663 10.082 2.08445C10.3694 2.1995 10.5842 2.3382 10.8053 2.56042C11.028 2.78265 11.167 2.99541 11.2822 3.28226C11.6107 4.11127 11.5365 6.08135 11.5365 7.0002C11.5365 7.91904 11.6107 9.88755 11.2807 10.7166Z" fill="#E5F6FF"/>
</svg>
