<svg width="8" height="12" viewBox="0 0 8 12" fill="none" xmlns="http://www.w3.org/2000/svg">
<path d="M7.78411 0.715077C7.78411 0.632593 7.75052 0.553486 7.69073 0.495161C7.63093 0.436835 7.54983 0.404069 7.46527 0.404069H5.87105C5.06827 0.365062 4.28231 0.637569 3.68487 1.16205C3.08743 1.68652 2.7271 2.42034 2.6826 3.20315V4.8826H1.08838C1.00381 4.8826 0.922714 4.91536 0.862919 4.97369C0.803124 5.03202 0.769531 5.11112 0.769531 5.19361V6.81085C0.769531 6.89334 0.803124 6.97244 0.862919 7.03077C0.922714 7.08909 1.00381 7.12186 1.08838 7.12186H2.6826V11.2894C2.6826 11.3719 2.71619 11.451 2.77599 11.5093C2.83578 11.5676 2.91688 11.6004 3.00144 11.6004H4.91451C4.99907 11.6004 5.08017 11.5676 5.13997 11.5093C5.19976 11.451 5.23336 11.3719 5.23336 11.2894V7.12186H6.9041C6.97501 7.12286 7.04423 7.10076 7.10082 7.05908C7.15741 7.0174 7.19814 6.95851 7.21657 6.89172L7.67571 5.27447C7.68839 5.22851 7.6901 5.18033 7.68069 5.13364C7.67128 5.08694 7.65102 5.04297 7.62145 5.00512C7.59188 4.96726 7.5538 4.93653 7.51014 4.91529C7.46648 4.89405 7.41841 4.88286 7.36962 4.8826H5.23336V3.20315C5.24922 3.04919 5.32334 2.90652 5.44126 2.803C5.55917 2.69949 5.71241 2.64256 5.87105 2.64333H7.46527C7.54983 2.64333 7.63093 2.61057 7.69073 2.55224C7.75052 2.49391 7.78411 2.41481 7.78411 2.33232V0.715077Z" fill="#E5F6FF"/>
</svg>
