<svg width="12" height="12" viewBox="0 0 12 12" fill="none" xmlns="http://www.w3.org/2000/svg">
<path d="M5.88297 0.128906C4.3569 0.128906 2.89333 0.735558 1.81423 1.8154C0.735136 2.89525 0.128906 4.35984 0.128906 5.88697C0.128906 7.4141 0.735136 8.87869 1.81423 9.95854C2.89333 11.0384 4.3569 11.645 5.88297 11.645C7.40904 11.645 8.87261 11.0384 9.95171 9.95854C11.0308 8.87869 11.637 7.4141 11.637 5.88697C11.637 4.35984 11.0308 2.89525 9.95171 1.8154C8.87261 0.735558 7.40904 0.128906 5.88297 0.128906ZM0.838574 6.32202H2.44332C2.46889 6.90423 2.55009 7.48259 2.68627 8.04944H1.30529C1.04777 7.50619 0.889695 6.92112 0.838574 6.32202ZM6.31772 2.86719V0.89025C6.93384 1.12456 7.44012 1.58098 7.73706 2.16982C7.86812 2.39183 7.98384 2.62279 8.0823 2.86079L6.31772 2.86719ZM8.3764 3.7309C8.52473 4.29583 8.61296 4.87483 8.63853 5.45831H6.31772V3.7309H8.3764ZM5.44822 0.89025V2.86719H3.68364C3.78227 2.62899 3.89764 2.39809 4.02888 2.17622C4.32456 1.58496 4.83099 1.12611 5.44822 0.89025ZM5.44822 3.7309V5.45831H3.13381C3.15938 4.87483 3.24761 4.29583 3.39594 3.7309H5.44822ZM2.44332 5.45192H0.838574C0.889695 4.85282 1.04777 4.26775 1.30529 3.7245H2.68627C2.54983 4.29112 2.46847 4.86962 2.44332 5.45192ZM3.13381 6.32202H5.44822V8.04944H3.39594C3.24763 7.48456 3.15976 6.9055 3.13381 6.32202ZM5.45461 8.88116V10.8581C4.83849 10.6238 4.33222 10.1674 4.03528 9.57853C3.90403 9.35666 3.78866 9.12576 3.69003 8.88756L5.45461 8.88116ZM6.31772 10.8581V8.91315H8.0823C7.98368 9.15135 7.86831 9.38225 7.73706 9.60412C7.44012 10.193 6.93384 10.6494 6.31772 10.8837V10.8581ZM6.31772 8.01745V6.29004H8.63214C8.60618 6.87351 8.51831 7.45257 8.37001 8.01745H6.31772ZM9.32902 6.29004H10.9338C10.8826 6.88913 10.7246 7.4742 10.467 8.01745H9.07967C9.21394 7.46084 9.29513 6.89335 9.32262 6.32202L9.32902 6.29004ZM9.32902 5.42633C9.29974 4.85456 9.21625 4.28686 9.07967 3.7309H10.4607C10.7183 4.27471 10.8762 4.85948 10.9274 5.45831L9.32902 5.42633ZM9.96836 2.86719H8.82394C8.61687 2.28517 8.31674 1.74067 7.93526 1.25493C8.73084 1.6123 9.4219 2.16729 9.94278 2.86719H9.96836ZM3.83069 1.25493C3.44921 1.74067 3.14907 2.28517 2.94201 2.86719H1.82316C2.34404 2.16729 3.0351 1.6123 3.83069 1.25493ZM1.81677 8.93235H2.94201C3.14907 9.51436 3.44921 10.0589 3.83069 10.5446C3.0329 10.1819 2.34163 9.62008 1.82316 8.91315L1.81677 8.93235ZM7.92886 10.5446C8.31034 10.0589 8.61048 9.51436 8.81755 8.93235H9.94278C9.41872 9.62286 8.72793 10.1688 7.93526 10.519L7.92886 10.5446Z" fill="#FDFDFD"/>
</svg>
