<svg width="30" height="30" viewBox="0 0 30 30" fill="none" xmlns="http://www.w3.org/2000/svg">
<circle cx="15" cy="15" r="15" fill="#1B1B1B"/>
<path d="M11.3576 21.1252H8.24777V12.3625H11.3576V21.1252ZM9.801 11.1672C8.80658 11.1672 8 10.4465 8 9.57637C8 9.15842 8.18975 8.75759 8.5275 8.46205C8.86526 8.16652 9.32335 8.00049 9.801 8.00049C10.2787 8.00049 10.7368 8.16652 11.0745 8.46205C11.4123 8.75759 11.602 9.15842 11.602 9.57637C11.602 10.4465 10.7951 11.1672 9.801 11.1672ZM22.9967 21.1252H19.8935V16.8596C19.8935 15.843 19.8701 14.5393 18.2767 14.5393C16.6598 14.5393 16.4121 15.6438 16.4121 16.7863V21.1252H13.3056V12.3625H16.2882V13.5578H16.3317C16.7469 12.8693 17.761 12.1428 19.2741 12.1428C22.4214 12.1428 23 13.9563 23 16.3117V21.1252H22.9967Z" fill="white"/>
</svg>
